<svg height="413pt" viewBox="0 -2 413.641 413" width="413pt" xmlns="http://www.w3.org/2000/svg"><path d="M329.719 208.805c0 84.832-68.77 153.601-153.598 153.601-84.832 0-153.601-68.77-153.601-153.601 0-84.828 68.77-153.598 153.601-153.598 84.828 0 153.598 68.77 153.598 153.598zm0 0" fill="#c1dbdc"/><g fill="#4c241d"><path d="M338.02 26.426a6.828 6.828 0 01-4.828-11.652L345.644 2.32a6.828 6.828 0 019.656 9.652l-12.457 12.454a6.803 6.803 0 01-4.824 2zm0 0M308.965 55.48a6.803 6.803 0 01-4.824-2 6.82 6.82 0 010-9.652l12.453-12.457a6.828 6.828 0 019.652 9.656L313.793 53.48a6.812 6.812 0 01-4.828 2zm0 0M321.422 26.426a6.812 6.812 0 01-4.828-2L304.14 11.973a6.82 6.82 0 010-9.653 6.82 6.82 0 019.652 0l12.453 12.453a6.82 6.82 0 010 9.653 6.81 6.81 0 01-4.824 2zm0 0M350.473 55.48a6.819 6.819 0 01-4.828-2L333.19 41.027a6.832 6.832 0 010-9.656 6.828 6.828 0 019.653 0L355.3 43.828a6.828 6.828 0 01-4.828 11.652zm0 0M65.52 376.059H47.914a6.824 6.824 0 01-6.828-6.825 6.825 6.825 0 016.828-6.828H65.52a6.822 6.822 0 016.824 6.828 6.82 6.82 0 01-6.824 6.825zm0 0M24.434 376.059H6.828A6.824 6.824 0 010 369.234a6.825 6.825 0 016.828-6.828h17.606a6.822 6.822 0 016.824 6.828 6.82 6.82 0 01-6.824 6.825zm0 0M36.172 364.32a6.824 6.824 0 01-6.824-6.828v-17.61c0-3.769 3.05-6.823 6.824-6.823S43 336.113 43 339.883v17.61a6.828 6.828 0 01-6.828 6.827zm0 0M36.172 405.41a6.824 6.824 0 01-6.824-6.828v-17.61a6.827 6.827 0 1113.652 0v17.61a6.828 6.828 0 01-6.828 6.828zm0 0M389.84 404.52c-11.613 0-21.059-9.446-21.059-21.055 0-11.613 9.446-21.059 21.059-21.059 11.613 0 21.062 9.446 21.062 21.059 0 11.61-9.449 21.055-21.062 21.055zm0-28.461a7.412 7.412 0 00-7.406 7.406c0 4.082 3.32 7.402 7.406 7.402s7.406-3.32 7.406-7.402a7.412 7.412 0 00-7.406-7.406zm0 0M133.5 73.852a6.812 6.812 0 01-4.828-2 6.832 6.832 0 010-9.657L148.8 42.07a6.82 6.82 0 019.652 0 6.828 6.828 0 010 9.653l-20.129 20.129a6.803 6.803 0 01-4.824 2zm0 0"/></g><path d="M343.816 110.262l-60.14 34.785 56.226 49.777 29-59.476zm0 0" fill="#ffce56"/><path d="M339.898 201.652a6.808 6.808 0 01-4.523-1.714l-56.227-49.778a6.82 6.82 0 01-2.265-5.793 6.815 6.815 0 013.37-5.226l60.142-34.79a6.837 6.837 0 018.246 1.087l25.086 25.085a6.816 6.816 0 011.308 7.82l-29 59.477a6.807 6.807 0 01-6.137 3.832zm-44.605-55.437l42.406 37.547 22.934-47.032-17.938-17.937zm0 0" fill="#4c241d"/><path d="M395.797 80.195l-51.98 30.067 25.085 25.086zm0 0" fill="#6b4f5b"/><path d="M368.898 142.176a6.836 6.836 0 01-4.824-2l-25.086-25.086a6.815 6.815 0 01-1.941-5.719 6.825 6.825 0 013.348-5.02l51.984-30.066a6.822 6.822 0 018.074.918 6.818 6.818 0 011.48 7.988l-26.902 55.153a6.813 6.813 0 01-6.133 3.832zm-13.972-30.453l12.035 12.035L379.863 97.3zm0 0" fill="#4c241d"/><path d="M103.996 110.262l60.14 34.785-56.226 49.777-29-59.476zm0 0" fill="#ffce56"/><path d="M107.914 201.652a6.793 6.793 0 01-6.133-3.832l-29.004-59.476a6.829 6.829 0 011.309-7.82l25.086-25.087a6.835 6.835 0 018.246-1.085l60.14 34.789a6.842 6.842 0 013.376 5.226 6.846 6.846 0 01-2.266 5.793l-56.227 49.778a6.825 6.825 0 01-4.527 1.714zM87.18 136.734l22.933 47.032 42.407-37.547-47.399-27.422zm0 0" fill="#4c241d"/><path d="M52.016 80.195l51.98 30.067-25.086 25.086zm0 0" fill="#6b4f5b"/><path d="M78.914 142.176a6.827 6.827 0 01-6.137-3.832L45.88 83.19a6.824 6.824 0 011.48-7.988 6.817 6.817 0 018.075-.918l51.984 30.067a6.825 6.825 0 013.348 5.02 6.815 6.815 0 01-1.942 5.718l-25.086 25.086a6.836 6.836 0 01-4.824 2zM67.954 97.3l12.898 26.457 12.035-12.035zm0 0M153.625 73.852a6.803 6.803 0 01-4.824-2l-20.13-20.13a6.828 6.828 0 010-9.652 6.82 6.82 0 019.653 0l20.13 20.125a6.832 6.832 0 010 9.657 6.805 6.805 0 01-4.829 2zm0 0" fill="#4c241d"/><path d="M118.965 353.926c-13.422-15.465-23.727-34.063-29.645-55.082-21.449-76.215 22.95-155.387 99.164-176.836 76.211-21.453 155.387 22.945 176.836 99.16 21.453 76.215-22.945 155.387-99.16 176.836-34.926 9.832-70.472 5.832-100.805-8.719" fill="#ffce56"/><path d="M227.293 410.203c-22.3 0-44.477-4.965-64.895-14.758a6.83 6.83 0 01-3.199-9.113 6.826 6.826 0 019.106-3.203c29.922 14.36 64.007 17.316 96.007 8.309 72.461-20.399 114.829-95.954 94.434-168.422-20.394-72.48-95.96-114.813-168.422-94.442-72.457 20.399-114.824 95.953-94.433 168.422 5.515 19.586 15.015 37.234 28.226 52.453a6.823 6.823 0 01-.676 9.63c-2.836 2.472-7.16 2.171-9.629-.677-14.546-16.75-25-36.164-31.066-57.703-22.434-79.722 24.172-162.828 103.887-185.261 79.691-22.422 162.82 24.164 185.262 103.878 22.433 79.723-24.176 162.829-103.887 185.262a150.213 150.213 0 01-40.715 5.625zm0 0" fill="#4c241d"/><path d="M145.492 384.559c-1.344 0-2.699-.395-3.89-1.223a150.93 150.93 0 01-12.102-9.348 6.829 6.829 0 01-.734-9.625c2.453-2.867 6.754-3.183 9.629-.742a137.753 137.753 0 0011.003 8.508c3.094 2.148 3.864 6.406 1.707 9.496a6.822 6.822 0 01-5.613 2.934zm0 0M313.348 272.3a6.828 6.828 0 01-6.828-6.827c0-6.032-4.907-10.934-10.934-10.934-6.027 0-10.934 4.902-10.934 10.934a6.827 6.827 0 11-13.652 0c0-13.555 11.027-24.586 24.586-24.586s24.586 11.031 24.586 24.586c0 3.77-3.05 6.828-6.824 6.828zm0 0M169.984 272.3a6.824 6.824 0 01-6.824-6.827c0-6.032-4.906-10.934-10.933-10.934-6.028 0-10.934 4.902-10.934 10.934a6.828 6.828 0 01-6.828 6.828 6.824 6.824 0 01-6.824-6.828c0-13.555 11.027-24.586 24.586-24.586 13.558 0 24.585 11.031 24.585 24.586a6.828 6.828 0 01-6.828 6.828zm0 0M38.176 34.727a8.829 8.829 0 01-8.828 8.828c-4.88 0-8.832-3.953-8.832-8.828s3.953-8.829 8.832-8.829a8.829 8.829 0 018.828 8.829zm0 0M413.64 157.605a8.829 8.829 0 11-17.657-.001 8.829 8.829 0 0117.658.001zm0 0" fill="#4c241d"/><path d="M355.07 318.031c0 12.117-9.82 21.938-21.937 21.938s-21.938-9.82-21.938-21.938c0-12.113 9.82-21.937 21.938-21.937 12.117 0 21.937 9.824 21.937 21.937zm0 0" fill="#e66353"/><path d="M333.133 346.797c-15.86 0-28.766-12.902-28.766-28.766 0-15.86 12.906-28.761 28.766-28.761 15.86 0 28.765 12.902 28.765 28.761 0 15.864-12.906 28.766-28.765 28.766zm0-43.875c-8.332 0-15.113 6.777-15.113 15.113 0 8.332 6.78 15.11 15.113 15.11 8.332 0 15.113-6.778 15.113-15.11 0-8.336-6.781-15.113-15.113-15.113zm0 0" fill="#4c241d"/><path d="M143.445 318.031c0 12.117-9.824 21.938-21.937 21.938-12.117 0-21.938-9.82-21.938-21.938 0-12.113 9.82-21.937 21.938-21.937 12.113 0 21.937 9.824 21.937 21.937zm0 0" fill="#e66353"/><path d="M121.508 346.797c-15.863 0-28.766-12.902-28.766-28.766 0-15.86 12.903-28.761 28.766-28.761 15.86 0 28.765 12.902 28.765 28.761 0 15.864-12.906 28.766-28.765 28.766zm0-43.875c-8.336 0-15.113 6.777-15.113 15.113 0 8.332 6.78 15.11 15.113 15.11 8.332 0 15.11-6.778 15.11-15.11 0-8.336-6.778-15.113-15.11-15.113zm0 0M251.766 315.922c-12.168 0-21.973-5.352-28.235-10.824-22.539 18.027-44.004 7.664-44.972 7.183a6.824 6.824 0 01-3.055-9.156 6.83 6.83 0 019.113-3.078c.828.39 17.336 7.855 34.461-9.27 1.399-1.406 3.285-2.113 5.313-1.984a6.806 6.806 0 014.972 2.715c.508.656 13.246 16.773 34.301 8.328 3.469-1.39 7.473.305 8.875 3.805a6.832 6.832 0 01-3.809 8.875c-6.023 2.41-11.71 3.406-16.964 3.406zm0 0" fill="#4c241d"/><path d="M223.906 295.602c-14.12 14.125-28.21 14.09-36.031 12.515 2.29 14.754 8.004 39.559 18.07 57.637 7.418 13.324 26.375 13.605 34.473.68 7.793-12.446 15.457-31.332 15.664-57.614-20.3 2.555-32.176-13.218-32.176-13.218zm0 0" fill="#e66353"/><path d="M223.313 382.77c-.243 0-.481-.004-.72-.008-9.527-.25-17.976-5.364-22.613-13.688-12.28-22.058-17.535-51.433-18.855-59.91a6.838 6.838 0 012.027-5.984 6.804 6.804 0 016.067-1.758c7.308 1.465 18.406.805 29.86-10.645a6.834 6.834 0 015.308-1.984 6.847 6.847 0 014.953 2.672c.437.574 9.937 12.582 25.887 10.578 2-.258 3.918.363 5.386 1.668a6.839 6.839 0 012.293 5.156c-.176 22.86-5.945 44.016-16.699 61.188-5.016 8-13.527 12.715-22.894 12.715zm-27.172-67.165c3.027 15.18 8.347 33.5 15.773 46.829 2.293 4.12 6.313 6.554 11.031 6.675 4.555.04 9.137-2.23 11.688-6.3 8.441-13.473 13.262-29.243 14.375-46.965-11.707-.742-20.36-6.39-25.414-10.805-9.961 7.95-19.746 10.332-27.453 10.566zm0 0" fill="#4c241d"/></svg>