<svg xmlns="http://www.w3.org/2000/svg" viewBox="0 0 423.253 423.253"><path fill="#26bbec" d="M68.267 163.84H348.16v211.627H68.267z"/><path d="M348.16 382.293H68.267a6.826 6.826 0 01-6.827-6.827V163.84a6.825 6.825 0 016.827-6.827H348.16a6.826 6.826 0 016.827 6.827v211.627a6.825 6.825 0 01-6.827 6.826zM75.093 368.64h266.24V170.667H75.093V368.64z"/><path fill="#9bfc1d" d="M314.027 252.587H102.4l13.653-47.787h184.32z"/><path d="M314.027 259.413H102.4a6.84 6.84 0 01-5.453-2.717 6.841 6.841 0 01-1.113-5.987l13.653-47.787a6.831 6.831 0 016.567-4.949h184.32a6.836 6.836 0 016.567 4.949l13.653 47.787a6.841 6.841 0 01-1.113 5.987 6.843 6.843 0 01-5.454 2.717zM111.454 245.76h193.521l-9.747-34.133H121.201l-9.747 34.133z"/><path fill="#ddd" d="M6.827 375.467h409.6v27.307H6.827z"/><path d="M416.427 409.6H6.827A6.825 6.825 0 010 402.773v-27.307a6.825 6.825 0 016.827-6.827h409.6a6.826 6.826 0 016.827 6.827v27.307a6.826 6.826 0 01-6.827 6.827zM13.653 395.947H409.6v-13.653H13.653v13.653z"/><path fill="#288eea" d="M116.053 252.587h184.32v81.92h-184.32z"/><path d="M300.373 341.333h-184.32a6.826 6.826 0 01-6.827-6.827v-81.92a6.825 6.825 0 016.827-6.827h184.32a6.826 6.826 0 016.827 6.827v81.92a6.824 6.824 0 01-6.827 6.827zM122.88 327.68h170.667v-68.267H122.88v68.267zM116.053 170.667a6.826 6.826 0 01-6.827-6.827v-40.96c0-3.77 3.053-6.827 6.827-6.827s6.827 3.057 6.827 6.827v40.96a6.825 6.825 0 01-6.827 6.827zM300.373 170.667a6.826 6.826 0 01-6.827-6.827v-40.96c0-3.77 3.053-6.827 6.827-6.827s6.827 3.057 6.827 6.827v40.96a6.825 6.825 0 01-6.827 6.827z"/><path fill="#9bfc1d" d="M40.96 20.48h334.507v95.573H40.96z"/><path d="M375.467 122.88H40.96a6.826 6.826 0 01-6.827-6.827V20.48a6.825 6.825 0 016.827-6.827h334.507a6.826 6.826 0 016.827 6.827v95.573a6.826 6.826 0 01-6.827 6.827zm-327.68-13.653H368.64v-81.92H47.787v81.92z"/><path d="M115.948 94.72c-1.36 0-2.441-.259-3.239-.78-.799-.521-1.413-1.207-1.84-2.06s-.7-1.819-.819-2.9a30.102 30.102 0 01-.179-3.301V69.84c0-.72-.034-1.427-.101-2.12-.067-.693-.22-1.307-.461-1.84a3.187 3.187 0 00-1.06-1.3c-.466-.335-1.101-.5-1.9-.5-1.067 0-1.934.36-2.599 1.08-.666.72-1.193 1.7-1.58 2.941-.387 1.241-.654 2.7-.8 4.379a62.623 62.623 0 00-.22 5.441v7.76c0 1.12-.06 2.22-.179 3.301-.119 1.08-.387 2.046-.8 2.9a5.048 5.048 0 01-1.819 2.06c-.799.521-1.896.778-3.284.778s-2.48-.259-3.28-.78a5.033 5.033 0 01-1.819-2.06c-.413-.853-.679-1.819-.8-2.9s-.179-2.179-.179-3.301v-21.92c0-1.12.046-2.22.14-3.301.094-1.08.34-2.046.741-2.9.401-.853 1.007-1.539 1.819-2.06s1.94-.78 3.379-.78c1.466 0 2.606.247 3.42.741.814.493 1.42 1.094 1.819 1.801.399.707.64 1.447.72 2.22s.119 1.427.119 1.959c.241-.773.62-1.56 1.14-2.36.521-.8 1.179-1.521 1.98-2.161s1.72-1.167 2.76-1.58c1.039-.413 2.202-.62 3.482-.62 1.76 0 3.466.427 5.12 1.28s3.067 2.239 4.239 4.161c.399-.906.986-1.7 1.76-2.381a10.79 10.79 0 012.64-1.7 14.312 14.312 0 013.161-1.021 16.689 16.689 0 013.319-.34c1.466 0 2.934.241 4.4.72 1.466.48 2.787 1.28 3.959 2.4 1.172 1.12 2.127 2.58 2.86 4.379.734 1.799 1.101 4.019 1.101 6.659v16.8c0 1.12-.067 2.22-.2 3.301-.133 1.08-.413 2.046-.84 2.9s-1.046 1.539-1.86 2.06c-.814.521-1.9.78-3.26.78-1.386 0-2.487-.259-3.301-.78-.814-.521-1.434-1.207-1.86-2.06s-.7-1.819-.819-2.9a30.102 30.102 0 01-.179-3.301v-15.84c0-.72-.039-1.427-.119-2.12a6.23 6.23 0 00-.48-1.84c-.239-.532-.601-.966-1.08-1.3s-1.12-.5-1.92-.5c-.853 0-1.58.266-2.179.8-.599.534-1.101 1.266-1.5 2.2s-.707 2.046-.92 3.34c-.213 1.294-.36 2.7-.44 4.221v11.04c0 1.12-.06 2.22-.179 3.301-.119 1.08-.393 2.046-.819 2.9a5.133 5.133 0 01-1.86 2.06c-.817.524-1.92.783-3.305.783zM184.267 85.68c0 1.12-.039 2.22-.119 3.301-.08 1.08-.321 2.046-.72 2.9s-1 1.539-1.801 2.06c-.8.521-1.92.78-3.36.78-1.466 0-2.613-.247-3.441-.741-.828-.493-1.44-1.094-1.84-1.801a5.943 5.943 0 01-.741-2.22 16.655 16.655 0 01-.14-1.959c-.241.773-.58 1.56-1.021 2.36s-1.007 1.521-1.7 2.161c-.693.64-1.526 1.167-2.5 1.58-.975.413-2.113.62-3.42.62-1.466 0-2.934-.241-4.4-.72s-2.787-1.28-3.959-2.4c-1.172-1.12-2.127-2.58-2.86-4.379-.734-1.799-1.101-4.019-1.101-6.659v-11.6c0-2.666.367-4.9 1.101-6.7.734-1.801 1.686-3.253 2.86-4.361 1.174-1.108 2.493-1.9 3.959-2.381 1.466-.48 2.934-.72 4.4-.72 1.307 0 2.447.2 3.42.601.973.401 1.807.92 2.5 1.56s1.26 1.36 1.7 2.161.78 1.601 1.021 2.4c0-1.333.186-2.441.56-3.319s.853-1.58 1.44-2.099a4.892 4.892 0 011.98-1.08c.734-.2 1.459-.3 2.179-.3 1.333 0 2.4.259 3.2.78.8.521 1.406 1.2 1.819 2.039.413.84.679 1.812.8 2.92s.179 2.234.179 3.379v21.84h.005zm-20.801-6.16c0 .72.027 1.427.08 2.12s.2 1.319.44 1.881c.241.561.594 1.007 1.06 1.34s1.113.5 1.94.5c1.039 0 1.886-.234 2.54-.7.654-.466 1.167-1.186 1.539-2.161.372-.975.633-2.2.78-3.68s.234-3.246.259-5.299c0-.826-.073-1.78-.22-2.86-.147-1.08-.406-2.099-.78-3.06s-.893-1.773-1.56-2.441-1.521-1-2.56-1c-.826 0-1.473.167-1.94.5a3.153 3.153 0 00-1.06 1.3c-.241.534-.387 1.14-.44 1.819-.053.679-.08 1.367-.08 2.06v9.68h.002zM219.387 60.72c0 2.08-.514 3.599-1.539 4.56-1.027.959-2.487 1.44-4.379 1.44-.266 0-.647.02-1.14.06a7.281 7.281 0 00-1.58.321 8.356 8.356 0 00-1.7.759 5.996 5.996 0 00-1.58 1.36c-.48.573-.867 1.3-1.161 2.179-.294.879-.44 1.934-.44 3.161V86c0 1.094-.06 2.161-.179 3.2-.119 1.039-.393 1.966-.819 2.78-.427.814-1.039 1.473-1.84 1.98s-1.881.759-3.239.759c-1.333 0-2.386-.253-3.161-.759a5.076 5.076 0 01-1.78-1.98c-.413-.812-.679-1.741-.8-2.78s-.179-2.106-.179-3.2V63.6c0-1.12.06-2.207.179-3.26s.387-1.993.8-2.819a4.91 4.91 0 011.78-1.98c.773-.493 1.826-.741 3.161-.741 1.36 0 2.406.3 3.14.899s1.273 1.374 1.62 2.319c.346.945.546 2 .601 3.161s.08 2.287.08 3.379h.64c.374-1.493.867-2.847 1.48-4.06.613-1.213 1.294-2.239 2.039-3.081.748-.84 1.546-1.487 2.4-1.94s1.707-.679 2.56-.679c1.039 0 1.886.113 2.54.34s1.167.58 1.539 1.06c.372.48.626 1.094.759 1.84.131.746.198 1.642.198 2.682zM226.266 47.601c0-1.12.039-2.214.119-3.28.08-1.067.307-2.014.679-2.84.372-.826.94-1.493 1.7-2s1.819-.759 3.18-.759c1.386 0 2.459.253 3.22.759a4.533 4.533 0 011.679 2c.36.826.58 1.773.66 2.84a43.89 43.89 0 01.119 3.28V63.36h.64l8.24-9.68a4.266 4.266 0 011.679-1.22 5.375 5.375 0 012-.381c.667 0 1.34.126 2.021.381.681.254 1.28.613 1.801 1.08a5.74 5.74 0 011.28 1.679c.333.652.5 1.393.5 2.22 0 1.067-.374 2.053-1.12 2.959l-7.199 8.48 7.84 14.961c.48.959.893 1.927 1.241 2.9s.521 1.9.521 2.78c0 .853-.186 1.613-.56 2.28a5.18 5.18 0 01-1.459 1.661 6.69 6.69 0 01-2 1 7.223 7.223 0 01-2.14.34c-.881 0-1.667-.213-2.36-.64s-1.3-.954-1.819-1.58c-.519-.626-.98-1.3-1.381-2.021a22.677 22.677 0 01-1-2l-4.48-9.52h-2.239v6.721c0 1.12-.039 2.22-.119 3.301-.08 1.08-.3 2.039-.66 2.881a4.52 4.52 0 01-1.679 2.021c-.759.507-1.833.759-3.22.759-1.36 0-2.42-.253-3.18-.759a4.652 4.652 0 01-1.7-2.021c-.374-.841-.601-1.801-.679-2.881a45.78 45.78 0 01-.119-3.301V47.601h-.006zM298.267 71.921c0 .427-.027.927-.08 1.5a3.395 3.395 0 01-.62 1.64c-.36.521-.927.966-1.7 1.34s-1.867.56-3.28.56h-15.92v3.84c0 .64.08 1.307.241 2 .16.693.434 1.333.821 1.92s.899 1.067 1.539 1.44c.64.374 1.427.56 2.36.56 1.067 0 1.886-.126 2.459-.381.573-.254 1.027-.567 1.36-.94.333-.374.633-.773.899-1.2.266-.427.62-.826 1.06-1.2s1.053-.686 1.84-.94 1.874-.381 3.26-.381a11.5 11.5 0 011.94.16c.626.108 1.179.307 1.661.601s.867.7 1.161 1.22.44 1.193.44 2.021c0 1.734-.546 3.18-1.64 4.34-1.094 1.161-2.466 2.087-4.12 2.78s-3.447 1.186-5.379 1.48c-1.932.294-3.739.44-5.42.44-2.214-.027-4.32-.307-6.32-.84-2-.532-3.767-1.386-5.299-2.56-1.533-1.174-2.753-2.707-3.661-4.599-.906-1.893-1.36-4.214-1.36-6.96V70.4c0-2.533.3-4.68.899-6.439.599-1.76 1.381-3.227 2.34-4.4.959-1.172 2.039-2.087 3.239-2.739s2.413-1.14 3.64-1.459c1.227-.319 2.393-.521 3.5-.601s2.06-.119 2.86-.119c2.693 0 4.994.241 6.9.72 1.906.48 3.5 1.106 4.78 1.881 1.28.775 2.294 1.667 3.04 2.679.746 1.012 1.307 2.06 1.679 3.14a14.15 14.15 0 01.72 3.28c.108 1.108.16 2.14.16 3.099v2.478h.001zm-21.601-.961h9.999c0-1.253-.034-2.367-.101-3.34-.067-.973-.266-1.794-.601-2.459-.335-.666-.853-1.174-1.56-1.521-.707-.346-1.714-.521-3.021-.521-1.094 0-1.954.174-2.58.521-.626.346-1.101.78-1.42 1.3-.319.521-.521 1.073-.601 1.661s-.119 1.106-.119 1.56v2.799h.004zM311.946 54.719v-7.04c0-1.12.06-2.214.179-3.28s.393-2.021.819-2.86 1.039-1.521 1.84-2.039 1.881-.78 3.239-.78c1.333 0 2.4.259 3.2.78.8.521 1.406 1.2 1.819 2.039s.679 1.794.8 2.86c.121 1.067.179 2.161.179 3.28v7.04h3.28c.693 0 1.386.034 2.08.101s1.314.259 1.86.58c.546.321.986.8 1.319 1.44s.5 1.533.5 2.679c0 1.094-.167 1.959-.5 2.599-.333.64-.773 1.12-1.319 1.44-.546.321-1.167.527-1.86.62s-1.386.14-2.08.14h-3.28v14c0 .532.02 1.101.06 1.7a4.52 4.52 0 00.42 1.661c.241.507.601.927 1.08 1.26s1.161.5 2.039.5c.959 0 1.78.073 2.459.22.679.147 1.241.406 1.679.78.439.374.766.893.98 1.56.213.667.321 1.521.321 2.56 0 1.067-.247 1.987-.741 2.76a6.075 6.075 0 01-1.98 1.92c-.826.507-1.787.881-2.881 1.12a16.07 16.07 0 01-3.441.36c-1.893 0-3.514-.2-4.861-.601-1.347-.401-2.466-.966-3.36-1.7a8.12 8.12 0 01-2.12-2.64c-.519-1.027-.906-2.179-1.161-3.459s-.413-2.661-.48-4.14a103.15 103.15 0 01-.101-4.659V64.319h-2.239c-.693 0-1.381-.046-2.06-.14a4.756 4.756 0 01-1.819-.62c-.532-.319-.966-.8-1.3-1.44-.335-.64-.5-1.507-.5-2.599 0-1.147.167-2.039.5-2.679.333-.64.766-1.12 1.3-1.44a4.285 4.285 0 011.819-.58 20.986 20.986 0 012.06-.101l2.252-.001z"/><path d="M133.12 303.787a6.803 6.803 0 01-4.826-2 6.825 6.825 0 010-9.653l23.893-23.893a6.825 6.825 0 019.653 0 6.825 6.825 0 010 9.653l-23.893 23.893a6.811 6.811 0 01-4.827 2z" fill="#fff"/></svg>