<svg height="512" width="512" xmlns="http://www.w3.org/2000/svg"><path d="M227 512H85c-8.284 0-15-6.716-15-15s6.716-15 15-15h142c8.284 0 15 6.716 15 15s-6.716 15-15 15z" fill="#5e54ac"/><circle cx="30" cy="497" fill="#5e54ac" r="15"/><path d="M227 452H85c-8.284 0-15-6.716-15-15s6.716-15 15-15h142c8.284 0 15 6.716 15 15s-6.716 15-15 15z" fill="#5e54ac"/><circle cx="30" cy="437" fill="#5e54ac" r="15"/><path d="M227 392H85c-8.284 0-15-6.716-15-15s6.716-15 15-15h142c8.284 0 15 6.716 15 15s-6.716 15-15 15z" fill="#5e54ac"/><circle cx="30" cy="377" fill="#5e54ac" r="15"/><path d="M349.017 450.006c-5.057 0-9.992-2.557-12.819-7.189L268.581 332H15c-8.284 0-15-6.716-15-15s6.716-15 15-15h262a15.002 15.002 0 0112.805 7.188l72.002 118.004c4.315 7.071 2.08 16.302-4.992 20.617a14.932 14.932 0 01-7.798 2.197z" fill="#f9f9f9"/><path d="M361.807 427.191l-72.002-118.004A15.003 15.003 0 00277 302H156v30h112.581l67.617 110.816c2.827 4.633 7.762 7.189 12.819 7.189 2.663 0 5.36-.709 7.799-2.197 7.071-4.315 9.306-13.545 4.991-20.617z" fill="#e2dff4"/><path d="M201 98.787V30c0-8.284-6.716-15-15-15h-60c-8.284 0-15 6.716-15 15v68.787L54.787 155c0 13.255 10.745 24 24 24h154.426c13.255 0 24-10.745 24-24z" fill="#f9f9f9"/><path d="M201 98.787V30c0-8.284-6.716-15-15-15h-30v164h77.213c13.255 0 24-10.745 24-24z" fill="#e2dff4"/><path d="M257.213 155H54.787l-4.896 4.896c-12.361 12.361-19.087 28.855-18.887 46.366C31.41 241.739 60.947 270 96.426 270h119.148c35.479 0 65.016-28.261 65.422-63.738.2-17.511-6.526-34.005-18.887-46.366z" fill="#ccfc5c"/><path d="M262.109 159.896L257.213 155H156v115h59.574c35.479 0 65.016-28.261 65.422-63.738.2-17.511-6.526-34.005-18.887-46.366z" fill="#00cb75"/><g><path d="M211 30H101c-8.284 0-15-6.716-15-15s6.716-15 15-15h110c8.284 0 15 6.716 15 15s-6.716 15-15 15z" fill="#e2dff4"/></g><g><path d="M211 0h-55v30h55c8.284 0 15-6.716 15-15s-6.716-15-15-15z" fill="#bebcdd"/></g><g><path d="M497 512H337c-8.284 0-15-6.716-15-15v-20c0-52.383 42.617-95 95-95s95 42.617 95 95v20c0 8.284-6.716 15-15 15z" fill="#ff8659"/></g><g><path d="M417 382v130h80c8.284 0 15-6.716 15-15v-20c0-52.383-42.617-95-95-95z" fill="#ff4a4a"/></g><g><path d="M417 407c-31.705 0-57.5-25.795-57.5-57.5S385.295 292 417 292s57.5 25.795 57.5 57.5S448.705 407 417 407z" fill="#ffdecf"/></g><g><path d="M417 292v115c31.706 0 57.5-25.795 57.5-57.5S448.706 292 417 292z" fill="#ffcdbe"/></g><g><path d="M227 362h-71v30h71c8.284 0 15-6.716 15-15s-6.716-15-15-15z" fill="#453d81"/></g><g><path d="M227 422h-71v30h71c8.284 0 15-6.716 15-15s-6.716-15-15-15z" fill="#453d81"/></g><g><path d="M227 482h-71v30h71c8.284 0 15-6.716 15-15s-6.716-15-15-15z" fill="#453d81"/></g></svg>