<?xml version="1.0" encoding="iso-8859-1"?>
<!-- Generator: Adobe Illustrator 19.0.0, SVG Export Plug-In . SVG Version: 6.00 Build 0)  -->
<svg version="1.1" id="Capa_1" xmlns="http://www.w3.org/2000/svg" xmlns:xlink="http://www.w3.org/1999/xlink" x="0px" y="0px"
	 viewBox="0 0 512 512" style="enable-background:new 0 0 512 512;" xml:space="preserve">
<polygon style="fill:#79D60D;" points="0,31.545 45.714,480.455 45.714,480.455 466.286,480.455 512,31.545 "/>
<polygon style="fill:#3CC602;" points="255.994,31.545 255.994,480.455 255.994,480.455 466.286,480.455 512,31.545 "/>
<polygon style="fill:#00AC00;" points="0,31.545 14.849,177.362 123.021,177.362 160.874,258.964 351.126,258.964 388.979,177.362 
	497.151,177.362 512,31.545 "/>
<polygon style="fill:#008100;" points="255.994,31.545 255.994,258.964 351.126,258.964 388.979,177.362 497.151,177.362 
	512,31.545 "/>
<path style="fill:#F1F1F2;" d="M174.228,113.385l37.853,81.602h87.839l37.853-81.602l-16.793-6.983
	c-41.593-17.295-88.364-17.295-129.957,0L174.228,113.385z"/>
<path style="fill:#E6E6E6;" d="M255.994,194.987h43.926l37.853-81.602l-16.793-6.983c-20.798-8.647-42.889-12.971-64.98-12.971
	C256,104.289,255.994,194.987,255.994,194.987z"/>
<rect x="241" y="130.73" style="fill:#FFA900;" width="30" height="64.25"/>
<rect x="255.99" y="130.73" style="fill:#FF8800;" width="15.01" height="64.25"/>
<g>
</g>
<g>
</g>
<g>
</g>
<g>
</g>
<g>
</g>
<g>
</g>
<g>
</g>
<g>
</g>
<g>
</g>
<g>
</g>
<g>
</g>
<g>
</g>
<g>
</g>
<g>
</g>
<g>
</g>
</svg>
